<?xml version="1.0"?>
<svg xmlns="http://www.w3.org/2000/svg" xmlns:xlink="http://www.w3.org/1999/xlink" version="1.1" id="Capa_1" x="0px" y="0px" viewBox="0 0 448.985 448.985" style="enable-background:new 0 0 448.985 448.985;" xml:space="preserve" width="512px" height="512px" class=""><g><g>
	<g>
		<path d="M376.123,277.662c-21.661,73.846-84.677,124.062-157.538,124.062c-70.892,0-133.908-49.231-156.554-122.092l-18.708,5.908    c24.615,81.723,95.508,135.877,175.261,135.877c81.723,0,152.615-56.123,176.246-137.846L376.123,277.662z" data-original="#000000" class="active-path" data-old_color="#000000" fill="#4B4343"/>
	</g>
</g><g>
	<g>
		<path d="M218.585,27.569c-69.908,0-133.908,42.339-165.415,109.292l17.723,7.877c28.554-60.062,84.677-97.477,147.692-97.477    c64.985,0,124.062,41.354,150.646,105.354l17.723-7.877C357.415,73.846,291.446,27.569,218.585,27.569z" data-original="#000000" class="active-path" data-old_color="#000000" fill="#4B4343"/>
	</g>
</g><g>
	<g>
		<path d="M297.354,265.846c-8.861,78.769-40.369,134.892-75.815,134.892c-33.477,0-64.985-53.169-74.831-127.015l-19.692,2.954    c11.815,86.646,49.231,144.739,94.523,144.739c45.292,0,84.677-62.031,95.508-153.6L297.354,265.846z" data-original="#000000" class="active-path" data-old_color="#000000" fill="#4B4343"/>
	</g>
</g><g>
	<g>
		<path d="M221.538,27.569c-41.354,0-76.8,48.246-91.569,124.062l19.692,3.938c12.8-64.985,41.354-108.308,71.877-108.308    c29.538,0,58.092,42.338,70.892,106.338l19.692-3.938C297.354,75.815,261.908,27.569,221.538,27.569z" data-original="#000000" class="active-path" data-old_color="#000000" fill="#4B4343"/>
	</g>
</g><g>
	<g>
		<polygon points="84.677,106.339 74.831,126.031 357.415,126.031 357.415,106.339   " data-original="#000000" class="active-path" data-old_color="#000000" fill="#4B4343"/>
	</g>
</g><g>
	<g>
		<rect x="66.954" y="306.215" width="297.354" height="19.692" data-original="#000000" class="active-path" data-old_color="#000000" fill="#4B4343"/>
	</g>
</g><g>
	<g>
		<path d="M108.307,182.154l-11.816,32.492c-1.969,7.877-4.923,14.769-5.908,21.662h-0.985c-1.969-6.892-4.923-13.785-7.877-21.662    l-12.8-32.492h-12.8l-13.785,33.477c-2.954,6.892-5.907,13.785-7.877,20.677h-0.985c-0.985-6.892-3.938-13.785-5.908-20.677    l-10.831-33.477H0l25.6,65.969h14.769l13.785-31.508c2.954-6.892,5.907-13.785,7.877-21.662    c2.954,7.877,4.923,14.769,7.877,21.662l12.8,31.508h13.785l26.585-65.969H108.307z" data-original="#000000" class="active-path" data-old_color="#000000" fill="#4B4343"/>
	</g>
</g><g>
	<g>
		<path d="M270.769,182.154l-11.815,32.492c-1.969,7.877-4.923,14.769-5.908,21.662h-0.985c-1.969-6.892-4.923-13.785-7.877-21.662    l-12.8-32.492h-12.8L204.8,215.631c-2.954,6.892-5.908,13.785-7.877,20.677h-0.985c-0.985-6.892-3.938-13.785-5.908-20.677    L179.2,182.154h-16.738l25.6,65.969h13.785l13.785-31.508c2.954-6.892,5.908-13.785,7.877-21.662    c2.954,7.877,4.923,14.769,7.877,21.662l12.8,31.508h14.769l26.585-65.969H270.769z" data-original="#000000" class="active-path" data-old_color="#000000" fill="#4B4343"/>
	</g>
</g><g>
	<g>
		<path d="M434.216,182.154L422.4,214.646c-1.969,7.877-4.923,14.769-5.908,21.662h-0.985c-1.969-6.892-4.923-13.785-7.877-21.662    l-12.8-32.492h-12.8l-13.785,33.477c-2.954,6.892-5.908,13.785-7.877,20.677h-0.985c-0.985-6.892-3.939-13.785-5.908-20.677    l-10.831-33.477h-15.754l25.6,65.969h12.8l13.785-31.508c2.954-6.892,5.908-13.785,7.877-21.662    c2.954,7.877,4.923,14.769,7.877,21.662l12.8,31.508h13.785l27.569-65.969H434.216z" data-original="#000000" class="active-path" data-old_color="#000000" fill="#4B4343"/>
	</g>
</g></g> </svg>
